<!-- SVG Icon for AlgoMento - Can be converted to PNG -->
<svg xmlns="http://www.w3.org/2000/svg" viewBox="0 0 128 128" width="128" height="128">
  <!-- Background Circle -->
  <circle cx="64" cy="64" r="60" fill="url(#gradient)" stroke="#4c1d95" stroke-width="3"/>
  
  <!-- Gradient Definition -->
  <defs>
    <linearGradient id="gradient" x1="0%" y1="0%" x2="100%" y2="100%">
      <stop offset="0%" style="stop-color:#667eea;stop-opacity:1" />
      <stop offset="100%" style="stop-color:#764ba2;stop-opacity:1" />
    </linearGradient>
  </defs>
  
  <!-- Brain Icon -->
  <g transform="translate(64,64) scale(0.8)">
    <!-- Left Brain -->
    <path d="M-20,-25 Q-35,-25 -35,-10 Q-35,5 -20,5 Q-10,5 -10,-10 Q-10,-25 -20,-25 Z" 
          fill="white" opacity="0.9"/>
    
    <!-- Right Brain -->
    <path d="M20,-25 Q35,-25 35,-10 Q35,5 20,5 Q10,5 10,-10 Q10,-25 20,-25 Z" 
          fill="white" opacity="0.9"/>
    
    <!-- Brain Stem -->
    <rect x="-5" y="5" width="10" height="15" rx="5" fill="white" opacity="0.9"/>
    
    <!-- Neural Connections -->
    <g stroke="white" stroke-width="1.5" fill="none" opacity="0.7">
      <path d="M-25,-15 Q-15,-15 -15,-5"/>
      <path d="M-25,-5 Q-15,-5 -15,5"/>
      <path d="M25,-15 Q15,-15 15,-5"/>
      <path d="M25,-5 Q15,-5 15,5"/>
      <path d="M-10,-10 Q0,-10 10,-10"/>
    </g>
  </g>
  
  <!-- Code Brackets -->
  <g stroke="white" stroke-width="2" fill="none" opacity="0.8">
    <path d="M25,35 L20,40 L25,45" stroke-linecap="round"/>
    <path d="M103,35 L108,40 L103,45" stroke-linecap="round"/>
  </g>
  
  <!-- AI Sparkles -->
  <g fill="white" opacity="0.6">
    <circle cx="35" cy="25" r="1.5"/>
    <circle cx="95" cy="30" r="1"/>
    <circle cx="40" cy="95" r="1"/>
    <circle cx="90" cy="85" r="1.5"/>
  </g>
</svg>
